<svg width="71" height="67" viewBox="0 0 71 67" fill="none" xmlns="http://www.w3.org/2000/svg">
    <path d="M35.5833 11.0517V62.6991M20.8854 21.3812H13.1042M23.4792 31.7106H13.1042M70.1667 49.7873V8.22826C70.1667 4.09647 66.7775 1.03205 62.6621 1.37637H62.4546C55.1921 1.99614 44.16 5.68032 38.0042 9.53667L37.4162 9.91541C36.4133 10.5352 34.7533 10.5352 33.7504 9.91541L32.8858 9.39894C26.73 5.57703 15.7325 1.92727 8.47 1.34193C4.35458 0.997617 1 4.09646 1 8.19383V49.7873C1 53.0927 3.6975 56.1916 7.0175 56.6047L8.02042 56.7425C15.525 57.741 27.1104 61.5285 33.7504 65.1438L33.8888 65.2126C34.8225 65.7291 36.3096 65.7291 37.2088 65.2126C43.8487 61.5629 55.4687 57.741 63.0079 56.7425L64.1492 56.6047C67.4692 56.1916 70.1667 53.0927 70.1667 49.7873V49.7873Z" stroke="white" stroke-width="1.5" stroke-linecap="round" stroke-linejoin="round"/>
</svg>
