<svg width="83" height="83" viewBox="0 0 83 83" fill="none" xmlns="http://www.w3.org/2000/svg">
    <path d="M27.6666 6.91667V17.2917M55.3333 6.91667V17.2917M12.1041 31.4363H70.8958M76.0833 65.7083C76.0833 68.3021 75.357 70.7575 74.0775 72.8325C72.8583 74.8815 71.1265 76.5777 69.0526 77.7542C66.9788 78.9306 64.6343 79.5466 62.25 79.5417C58.757 79.5417 55.5754 78.2621 53.1545 76.0833C52.0825 75.1842 51.1487 74.0775 50.4225 72.8325C49.106 70.6898 48.4115 68.2231 48.4166 65.7083C48.4166 58.0654 54.607 51.875 62.25 51.875C66.4 51.875 70.1004 53.7079 72.625 56.5783C74.8491 59.1002 76.0785 62.3458 76.0833 65.7083Z" stroke="#379679" stroke-width="1.5" stroke-miterlimit="10" stroke-linecap="round" stroke-linejoin="round"/>
    <path d="M56.855 65.7083L60.2787 69.1321L67.645 62.3192" stroke="#379679" stroke-width="1.5" stroke-linecap="round" stroke-linejoin="round"/>
    <path d="M72.625 29.3958V56.5783C70.1004 53.7079 66.4 51.875 62.25 51.875C54.6071 51.875 48.4167 58.0654 48.4167 65.7083C48.4167 68.3021 49.1429 70.7575 50.4225 72.8325C51.1487 74.0775 52.0825 75.1842 53.1546 76.0833H27.6667C15.5625 76.0833 10.375 69.1667 10.375 58.7917V29.3958C10.375 19.0208 15.5625 12.1042 27.6667 12.1042H55.3333C67.4375 12.1042 72.625 19.0208 72.625 29.3958Z" stroke="#379679" stroke-width="1.5" stroke-miterlimit="10" stroke-linecap="round" stroke-linejoin="round"/>
    <path d="M41.4828 47.3792H41.5173M28.6835 47.3792H28.7181M28.6835 57.7542H28.7181" stroke="#379679" stroke-width="2" stroke-linecap="round" stroke-linejoin="round"/>
</svg>
