<svg width="83" height="79" viewBox="0 0 83 79" fill="none" xmlns="http://www.w3.org/2000/svg">
    <path d="M27.6666 2.91663V13.2916M55.3333 2.91663V13.2916M12.1041 27.4362H70.8958M76.0833 61.7083C76.0833 64.302 75.357 66.7575 74.0775 68.8325C72.8583 70.8815 71.1265 72.5777 69.0526 73.7541C66.9788 74.9305 64.6343 75.5466 62.25 75.5416C58.757 75.5416 55.5754 74.262 53.1545 72.0833C52.0825 71.1841 51.1487 70.0775 50.4225 68.8325C49.106 66.6897 48.4115 64.2231 48.4166 61.7083C48.4166 54.0654 54.607 47.875 62.25 47.875C66.4 47.875 70.1004 49.7079 72.625 52.5783C74.8491 55.1002 76.0785 58.3458 76.0833 61.7083Z" stroke="white" stroke-width="1.5" stroke-miterlimit="10" stroke-linecap="round" stroke-linejoin="round"/>
    <path d="M56.855 61.7083L60.2787 65.1321L67.645 58.3192" stroke="white" stroke-width="1.5" stroke-linecap="round" stroke-linejoin="round"/>
    <path d="M72.625 25.3958V52.5783C70.1004 49.7079 66.4 47.875 62.25 47.875C54.6071 47.875 48.4167 54.0654 48.4167 61.7083C48.4167 64.302 49.1429 66.7575 50.4225 68.8325C51.1487 70.0775 52.0825 71.1841 53.1546 72.0833H27.6667C15.5625 72.0833 10.375 65.1666 10.375 54.7916V25.3958C10.375 15.0208 15.5625 8.10413 27.6667 8.10413H55.3333C67.4375 8.10413 72.625 15.0208 72.625 25.3958Z" stroke="white" stroke-width="1.5" stroke-miterlimit="10" stroke-linecap="round" stroke-linejoin="round"/>
    <path d="M41.4828 43.3792H41.5173M28.6835 43.3792H28.7181M28.6835 53.7542H28.7181" stroke="white" stroke-width="2" stroke-linecap="round" stroke-linejoin="round"/>
</svg>
