<svg width="30" height="26" viewBox="0 0 30 26" fill="none" xmlns="http://www.w3.org/2000/svg">
    <path d="M26.6177 5.85304C26.4332 5.58971 26.188 5.3747 25.9028 5.22621C25.6176 5.07772 25.3008 5.00012 24.9792 4.99998H19.9999V1.99999C19.9993 1.46974 19.7884 0.961385 19.4135 0.586442C19.0385 0.2115 18.5302 0.000595525 17.9999 0H1.99999C1.46974 0.000595525 0.961384 0.2115 0.586442 0.586442C0.2115 0.961385 0.000595525 1.46974 0 1.99999V22.4999H3.31761C3.49332 23.4813 4.00854 24.3697 4.77313 25.0095C5.53772 25.6494 6.50297 26 7.49997 26C8.49698 26 9.46223 25.6494 10.2268 25.0095C10.9914 24.3697 11.5066 23.4813 11.6823 22.4999H18.3176C18.4933 23.4813 19.0085 24.3697 19.7731 25.0095C20.5377 25.6494 21.5029 26 22.4999 26C23.4969 26 24.4622 25.6494 25.2268 25.0095C25.9914 24.3697 26.5066 23.4813 26.6823 22.4999H29.9999V11.1576C30.0004 10.8498 29.9057 10.5493 29.7288 10.2974L26.6177 5.85304ZM1.99874 1.99999H17.9999V13H1.99999L1.99874 1.99999ZM7.49997 23.9999C7.05497 23.9999 6.61995 23.868 6.24995 23.6207C5.87994 23.3735 5.59155 23.0221 5.42125 22.611C5.25096 22.1998 5.2064 21.7474 5.29321 21.311C5.38003 20.8745 5.59432 20.4736 5.90899 20.1589C6.22366 19.8443 6.62457 19.63 7.06102 19.5432C7.49748 19.4563 7.94988 19.5009 8.36101 19.6712C8.77214 19.8415 9.12354 20.1299 9.37077 20.4999C9.61801 20.8699 9.74997 21.3049 9.74997 21.7499C9.7493 22.3465 9.51204 22.9184 9.09023 23.3402C8.66842 23.762 8.09651 23.9993 7.49997 23.9999V23.9999ZM22.4999 23.9999C22.0549 23.9999 21.6199 23.868 21.2499 23.6207C20.8799 23.3735 20.5915 23.0221 20.4212 22.611C20.2509 22.1998 20.2063 21.7474 20.2932 21.311C20.38 20.8745 20.5943 20.4736 20.9089 20.1589C21.2236 19.8443 21.6245 19.63 22.061 19.5432C22.4974 19.4563 22.9498 19.5009 23.361 19.6712C23.7721 19.8415 24.1235 20.1299 24.3707 20.4999C24.618 20.8699 24.7499 21.3049 24.7499 21.7499C24.7493 22.3465 24.512 22.9184 24.0902 23.3402C23.6684 23.762 23.0965 23.9993 22.4999 23.9999V23.9999ZM27.9999 20.4999H26.562C26.2948 19.6312 25.756 18.871 25.0249 18.331C24.2938 17.791 23.4088 17.4996 22.4999 17.4996C21.591 17.4996 20.706 17.791 19.9749 18.331C19.2438 18.871 18.7051 19.6312 18.4378 20.4999H11.5621C11.2948 19.6312 10.7561 18.871 10.025 18.331C9.29387 17.791 8.40889 17.4996 7.49997 17.4996C6.59105 17.4996 5.70607 17.791 4.97496 18.331C4.24385 18.871 3.70512 19.6312 3.43786 20.4999H1.99999V14.9999H27.9999V20.4999ZM27.9999 13H19.9999V6.99998H24.9792L27.9999 11.3152V13Z" fill="#208074"/>
</svg>
