<svg width="83" height="83" viewBox="0 0 83 83" fill="none" xmlns="http://www.w3.org/2000/svg">
    <path d="M29.3958 65.7083H27.6666C13.8333 65.7083 6.91663 62.25 6.91663 44.9583V27.6667C6.91663 13.8333 13.8333 6.91667 27.6666 6.91667H55.3333C69.1666 6.91667 76.0833 13.8333 76.0833 27.6667V44.9583C76.0833 58.7917 69.1666 65.7083 55.3333 65.7083H53.6041C52.532 65.7083 51.4945 66.2271 50.8375 67.0917L45.65 74.0083C43.3675 77.0517 39.6325 77.0517 37.35 74.0083L32.1625 67.0917C31.6091 66.3308 30.3295 65.7083 29.3958 65.7083V65.7083Z" stroke="#379679" stroke-width="1.5" stroke-miterlimit="10" stroke-linecap="round" stroke-linejoin="round"/>
    <path d="M55.3195 38.0417H55.3541M41.4827 38.0417H41.5173M27.6494 38.0417H27.6771" stroke="#379679" stroke-width="2" stroke-linecap="round" stroke-linejoin="round"/>
</svg>
