<svg width="83" height="83" viewBox="0 0 83 83" fill="none" xmlns="http://www.w3.org/2000/svg">
    <path d="M29.3958 65.7084H27.6666C13.8333 65.7084 6.91663 62.25 6.91663 44.9584V27.6667C6.91663 13.8334 13.8333 6.91669 27.6666 6.91669H55.3333C69.1666 6.91669 76.0833 13.8334 76.0833 27.6667V44.9584C76.0833 58.7917 69.1666 65.7084 55.3333 65.7084H53.6041C52.532 65.7084 51.4945 66.2271 50.8375 67.0917L45.65 74.0084C43.3675 77.0517 39.6325 77.0517 37.35 74.0084L32.1625 67.0917C31.6091 66.3309 30.3295 65.7084 29.3958 65.7084V65.7084Z" stroke="white" stroke-width="1.5" stroke-miterlimit="10" stroke-linecap="round" stroke-linejoin="round"/>
    <path d="M55.3195 38.0417H55.3541M41.4827 38.0417H41.5173M27.6494 38.0417H27.6771" stroke="white" stroke-width="2" stroke-linecap="round" stroke-linejoin="round"/>
</svg>
